<svg width="24" height="24" viewBox="0 0 24 24" fill="none" xmlns="http://www.w3.org/2000/svg">
<path d="M7 2C6.44772 2 6 2.44772 6 3V21C6 21.5523 6.44772 22 7 22H17C17.5523 22 18 21.5523 18 21V3C18 2.44772 17.5523 2 17 2H7Z" stroke="#333333" stroke-width="2" stroke-linecap="round" stroke-linejoin="round"/>
<path d="M10 18H14" stroke="#333333" stroke-width="2" stroke-linecap="round" stroke-linejoin="round"/>
<path d="M9 6H15" stroke="#333333" stroke-width="2" stroke-linecap="round" stroke-linejoin="round"/>
<rect x="8" y="9" width="8" height="6" rx="1" fill="#4A90E2"/>
<rect x="9" y="10" width="6" height="4" rx="0.5" fill="white"/>
<rect x="10" y="11" width="1" height="2" fill="#333333"/>
<rect x="12" y="11" width="1" height="2" fill="#333333"/>
<rect x="14" y="11" width="1" height="2" fill="#333333"/>
</svg>